<?xml version="1.0" encoding="UTF-8"?>
<svg width="1710px" height="350px" viewBox="0 0 1710 350" version="1.1" xmlns="http://www.w3.org/2000/svg" xmlns:xlink="http://www.w3.org/1999/xlink">
    <!-- Generator: Sketch 51.1 (57501) - http://www.bohemiancoding.com/sketch -->
    <title>Compiler Stages</title>
    <desc>Created with Sketch.</desc>
    <defs></defs>
    <g id="Page-1" stroke="none" stroke-width="1" fill="none" fill-rule="evenodd">
        <g id="Compiler-Stages">
            <rect id="Rectangle-3" fill-opacity="0.1" fill="#007AFF" fill-rule="nonzero" x="0" y="0" width="890" height="350" rx="36"></rect>
            <g id="Parser" transform="translate(690.000000, 25.000000)">
                <rect id="Rectangle-2" fill="#DDDDDD" fill-rule="nonzero" x="225" y="0" width="265" height="300" rx="36"></rect>
                <path d="M283,130 L298.339844,130 C306.1875,130 311.628906,135.332031 311.628906,143.207031 C311.628906,151.082031 306.023438,156.414062 298.039062,156.414062 L290.054688,156.414062 L290.054688,169.457031 L283,169.457031 L283,130 Z M290.054688,135.769531 L290.054688,150.726562 L296.453125,150.726562 C301.511719,150.726562 304.464844,147.992188 304.464844,143.207031 C304.464844,138.476562 301.539062,135.769531 296.480469,135.769531 L290.054688,135.769531 Z M323.564682,164.78125 C327.42015,164.78125 330.509994,162.210938 330.509994,158.710938 L330.509994,156.496094 L323.810775,156.90625 C320.529525,157.125 318.642807,158.601562 318.642807,160.898438 C318.642807,163.277344 320.611557,164.78125 323.564682,164.78125 Z M321.5139,169.921875 C315.908432,169.921875 311.834213,166.394531 311.834213,161.171875 C311.834213,156.03125 315.799057,152.941406 322.853744,152.503906 L330.509994,152.066406 L330.509994,149.988281 C330.509994,146.953125 328.459213,145.203125 325.095932,145.203125 C321.869369,145.203125 319.818588,146.761719 319.381088,149.167969 L313.064682,149.167969 C313.365463,143.753906 317.986557,139.871094 325.369369,139.871094 C332.560775,139.871094 337.236557,143.671875 337.236557,149.496094 L337.236557,169.457031 L330.674057,169.457031 L330.674057,164.835938 L330.537338,164.835938 C328.869369,167.980469 325.23265,169.921875 321.5139,169.921875 Z M341.707488,169.457031 L341.707488,140.472656 L348.242644,140.472656 L348.242644,145.53125 L348.379363,145.53125 C349.363738,142.003906 351.906707,139.980469 355.324676,139.980469 C356.199676,139.980469 356.965301,140.144531 357.457488,140.253906 L357.457488,146.40625 C356.883269,146.1875 355.844207,146.023438 354.695769,146.023438 C350.840301,146.023438 348.516082,148.511719 348.516082,152.585938 L348.516082,169.457031 L341.707488,169.457031 Z M359.440138,148.785156 C359.440138,143.480469 364.11592,139.871094 371.170607,139.871094 C377.979201,139.871094 382.600295,143.535156 382.764357,148.894531 L376.420607,148.894531 C376.201857,146.40625 374.205763,144.875 371.033888,144.875 C368.026076,144.875 366.057326,146.296875 366.057326,148.402344 C366.057326,150.042969 367.369826,151.136719 370.213576,151.820312 L375.381545,152.96875 C381.17842,154.335938 383.447951,156.578125 383.447951,160.871094 C383.447951,166.339844 378.389357,170.03125 371.061232,170.03125 C363.787795,170.03125 359.166701,166.421875 358.701857,160.925781 L365.401076,160.925781 C365.811232,163.578125 367.862013,165.054688 371.307326,165.054688 C374.61592,165.054688 376.666701,163.714844 376.666701,161.554688 C376.666701,159.859375 375.600295,158.957031 372.783888,158.246094 L367.506545,157.015625 C362.14717,155.757812 359.440138,152.96875 359.440138,148.785156 Z M399.293882,145.148438 C395.465757,145.148438 392.704039,148.074219 392.430601,152.121094 L405.965757,152.121094 C405.829039,148.019531 403.204039,145.148438 399.293882,145.148438 Z M405.993101,160.789062 L412.364195,160.789062 C411.489195,166.257812 406.403257,170.03125 399.539976,170.03125 C390.844664,170.03125 385.594664,164.316406 385.594664,155.074219 C385.594664,145.914062 390.899351,139.871094 399.266539,139.871094 C407.497007,139.871094 412.637632,145.585938 412.637632,154.390625 L412.637632,156.605469 L392.375914,156.605469 L392.375914,157.015625 C392.375914,161.664062 395.219664,164.78125 399.676695,164.78125 C402.84857,164.78125 405.25482,163.195312 405.993101,160.789062 Z M416.014814,169.457031 L416.014814,140.472656 L422.54997,140.472656 L422.54997,145.53125 L422.686689,145.53125 C423.671064,142.003906 426.214033,139.980469 429.632001,139.980469 C430.507001,139.980469 431.272626,140.144531 431.764814,140.253906 L431.764814,146.40625 C431.190595,146.1875 430.151533,146.023438 429.003095,146.023438 C425.147626,146.023438 422.823408,148.511719 422.823408,152.585938 L422.823408,169.457031 L416.014814,169.457031 Z" fill="#666666"></path>
                <path id="Line" d="M146.5,152.75 L25,152.75 L22.5,152.75 L22.5,147.75 L25,147.75 L146.5,147.75 L146.5,135.75 L175.5,150.25 L146.5,164.75 L146.5,152.75 Z" fill-opacity="0.5" fill="#007AFF" fill-rule="nonzero"></path>
                <text id="Tokens" font-family="SFProDisplay-Semibold, SF Pro Display" font-size="36" font-weight="500" letter-spacing="-0.9978185" fill="#007AFF">
                    <tspan x="46.8401352" y="121">Tokens</tspan>
                </text>
            </g>
            <g id="Lexer" transform="translate(25.000000, 82.000000)">
                <rect id="Rectangle-2" fill="#007AFF" fill-rule="nonzero" x="400" y="0" width="265" height="186" rx="20"></rect>
                <path d="M492.964844,106.496094 L492.964844,112.457031 L468,112.457031 L468,73 L475.054688,73 L475.054688,106.496094 L492.964844,106.496094 Z M508.291244,88.1484375 C504.463119,88.1484375 501.7014,91.0742188 501.427963,95.1210938 L514.963119,95.1210938 C514.8264,91.0195312 512.2014,88.1484375 508.291244,88.1484375 Z M514.990463,103.789062 L521.361556,103.789062 C520.486556,109.257812 515.400619,113.03125 508.537338,113.03125 C499.842025,113.03125 494.592025,107.316406 494.592025,98.0742188 C494.592025,88.9140625 499.896713,82.8710938 508.2639,82.8710938 C516.494369,82.8710938 521.634994,88.5859375 521.634994,97.390625 L521.634994,99.6054688 L501.373275,99.6054688 L501.373275,100.015625 C501.373275,104.664062 504.217025,107.78125 508.674056,107.78125 C511.845931,107.78125 514.252181,106.195312 514.990463,103.789062 Z M535.867644,102.066406 L535.730925,102.066406 L529.7153,112.457031 L522.469207,112.457031 L531.820769,97.9921875 L522.551238,83.4726562 L530.207488,83.4726562 L536.05905,93.6445312 L536.195769,93.6445312 L541.9653,83.4726562 L549.430144,83.4726562 L540.105925,97.8007812 L549.320769,112.457031 L541.883269,112.457031 L535.867644,102.066406 Z M563.690138,88.1484375 C559.862013,88.1484375 557.100294,91.0742188 556.826857,95.1210938 L570.362013,95.1210938 C570.225294,91.0195312 567.600294,88.1484375 563.690138,88.1484375 Z M570.389357,103.789062 L576.760451,103.789062 C575.885451,109.257812 570.799513,113.03125 563.936232,113.03125 C555.240919,113.03125 549.990919,107.316406 549.990919,98.0742188 C549.990919,88.9140625 555.295607,82.8710938 563.662794,82.8710938 C571.893263,82.8710938 577.033888,88.5859375 577.033888,97.390625 L577.033888,99.6054688 L556.772169,99.6054688 L556.772169,100.015625 C556.772169,104.664062 559.615919,107.78125 564.072951,107.78125 C567.244826,107.78125 569.651076,106.195312 570.389357,103.789062 Z M580.41107,112.457031 L580.41107,83.4726562 L586.946226,83.4726562 L586.946226,88.53125 L587.082945,88.53125 C588.06732,85.0039062 590.610288,82.9804688 594.028257,82.9804688 C594.903257,82.9804688 595.668882,83.1445312 596.16107,83.2539062 L596.16107,89.40625 C595.586851,89.1875 594.547788,89.0234375 593.399351,89.0234375 C589.543882,89.0234375 587.219663,91.5117188 587.219663,95.5859375 L587.219663,112.457031 L580.41107,112.457031 Z" fill="#FFFFFF"></path>
                <path id="Line" d="M346.5,95.75 L225,95.75 L222.5,95.75 L222.5,90.75 L225,90.75 L346.5,90.75 L346.5,78.75 L375.5,93.25 L346.5,107.75 L346.5,95.75 Z" fill-opacity="0.5" fill="#007AFF" fill-rule="nonzero"></path>
                <text id="Source-Code" font-family="SFProDisplay-Semibold, SF Pro Display" font-size="36" font-weight="500" letter-spacing="-0.9978185" fill="#007AFF">
                    <tspan x="2.77901737" y="102">Source Code</tspan>
                </text>
            </g>
            <g id="Codegen" transform="translate(1205.000000, 187.000000)">
                <rect id="Rectangle-2" fill="#DDDDDD" fill-rule="nonzero" x="175" y="0" width="330" height="137.5" rx="36"></rect>
                <path d="M311.186964,60.2089844 C303.944776,60.2089844 299.392042,55.234375 299.392042,47.0957031 C299.392042,39.0097656 303.979932,34 311.186964,34 C317.075636,34 321.558057,37.6738281 322.120557,43.1230469 L317.655714,43.1230469 C317.058057,39.9414062 314.474073,37.8496094 311.186964,37.8496094 C306.827589,37.8496094 304.032667,41.4355469 304.032667,47.0957031 C304.032667,52.7910156 306.810011,56.359375 311.204542,56.359375 C314.561964,56.359375 316.970167,54.5488281 317.673292,51.4902344 L322.120557,51.4902344 C321.329542,56.921875 317.181104,60.2089844 311.186964,60.2089844 Z M332.711525,60.15625 C327.244728,60.15625 323.693946,56.5175781 323.693946,50.4707031 C323.693946,44.4589844 327.279884,40.7675781 332.711525,40.7675781 C338.143165,40.7675781 341.729103,44.4414062 341.729103,50.4707031 C341.729103,56.5175781 338.178321,60.15625 332.711525,60.15625 Z M332.711525,56.6933594 C335.488868,56.6933594 337.281837,54.4433594 337.281837,50.4707031 C337.281837,46.515625 335.488868,44.2480469 332.711525,44.2480469 C329.951759,44.2480469 328.141212,46.515625 328.141212,50.4707031 C328.141212,54.4433594 329.934181,56.6933594 332.711525,56.6933594 Z M350.861085,60.0859375 C346.167726,60.0859375 343.12671,56.3769531 343.12671,50.453125 C343.12671,44.5644531 346.167726,40.8378906 350.861085,40.8378906 C353.53296,40.8378906 355.642335,42.2265625 356.62671,44.2832031 L356.732179,44.2832031 L356.732179,34.421875 L361.109132,34.421875 L361.109132,59.7871094 L356.82007,59.7871094 L356.82007,56.6054688 L356.749757,56.6054688 C355.730226,58.6972656 353.585695,60.0859375 350.861085,60.0859375 Z M352.179445,44.4414062 C349.366945,44.4414062 347.609132,46.7792969 347.609132,50.4707031 C347.609132,54.1796875 349.349367,56.5 352.179445,56.5 C354.93921,56.5 356.749757,54.1621094 356.749757,50.4707031 C356.749757,46.8144531 354.93921,44.4414062 352.179445,44.4414062 Z M372.174709,44.1601562 C369.713771,44.1601562 367.938381,46.0410156 367.762599,48.6425781 L376.463771,48.6425781 C376.375881,46.0058594 374.688381,44.1601562 372.174709,44.1601562 Z M376.481349,54.2148438 L380.577052,54.2148438 C380.014552,57.7304688 376.745021,60.15625 372.332912,60.15625 C366.743068,60.15625 363.368068,56.4824219 363.368068,50.5410156 C363.368068,44.6523438 366.778224,40.7675781 372.157131,40.7675781 C377.448146,40.7675781 380.752834,44.4414062 380.752834,50.1015625 L380.752834,51.5253906 L367.727443,51.5253906 L367.727443,51.7890625 C367.727443,54.7773438 369.555568,56.78125 372.420802,56.78125 C374.459865,56.78125 376.00674,55.7617188 376.481349,54.2148438 Z M279.0625,92.2050781 C279.0625,99.078125 274.949219,103.208984 268.005859,103.208984 C260.605469,103.208984 256,98.1816406 256,90.0078125 C256,81.9570312 260.587891,77 267.917969,77 C273.683594,77 278.042969,80.4101562 278.869141,85.4902344 L274.263672,85.4902344 C273.402344,82.5722656 271.046875,80.8496094 267.935547,80.8496094 C263.365234,80.8496094 260.640625,84.2421875 260.640625,89.9550781 C260.640625,95.7910156 263.488281,99.359375 268.058594,99.359375 C271.890625,99.359375 274.544922,96.9335938 274.615234,93.3828125 L274.632812,92.9609375 L268.515625,92.9609375 L268.515625,89.4980469 L279.0625,89.4980469 L279.0625,92.2050781 Z M289.706201,87.1601562 C287.245264,87.1601562 285.469873,89.0410156 285.294092,91.6425781 L293.995264,91.6425781 C293.907373,89.0058594 292.219873,87.1601562 289.706201,87.1601562 Z M294.012842,97.2148438 L298.108545,97.2148438 C297.546045,100.730469 294.276514,103.15625 289.864405,103.15625 C284.274561,103.15625 280.899561,99.4824219 280.899561,93.5410156 C280.899561,87.6523438 284.309717,83.7675781 289.688623,83.7675781 C294.979639,83.7675781 298.284326,87.4414062 298.284326,93.1015625 L298.284326,94.5253906 L285.258936,94.5253906 L285.258936,94.7890625 C285.258936,97.7773438 287.087061,99.78125 289.952295,99.78125 C291.991358,99.78125 293.538233,98.7617188 294.012842,97.2148438 Z M300.455372,102.787109 L300.455372,84.1542969 L304.656544,84.1542969 L304.656544,87.3535156 L304.744434,87.3535156 C305.746387,85.1386719 307.732715,83.8027344 310.59795,83.8027344 C314.711231,83.8027344 317.049122,86.4394531 317.049122,90.7460938 L317.049122,102.787109 L312.672169,102.787109 L312.672169,91.625 C312.672169,88.9882812 311.4417,87.5117188 308.945606,87.5117188 C306.431934,87.5117188 304.832325,89.3222656 304.832325,91.9941406 L304.832325,102.787109 L300.455372,102.787109 Z M327.938917,87.1601562 C325.477979,87.1601562 323.702589,89.0410156 323.526807,91.6425781 L332.227979,91.6425781 C332.140089,89.0058594 330.452589,87.1601562 327.938917,87.1601562 Z M332.245557,97.2148438 L336.341261,97.2148438 C335.778761,100.730469 332.509229,103.15625 328.09712,103.15625 C322.507276,103.15625 319.132276,99.4824219 319.132276,93.5410156 C319.132276,87.6523438 322.542432,83.7675781 327.921339,83.7675781 C333.212354,83.7675781 336.517042,87.4414062 336.517042,93.1015625 L336.517042,94.5253906 L323.491651,94.5253906 L323.491651,94.7890625 C323.491651,97.7773438 325.319776,99.78125 328.185011,99.78125 C330.224073,99.78125 331.770948,98.7617188 332.245557,97.2148438 Z M338.688087,102.787109 L338.688087,84.1542969 L342.889259,84.1542969 L342.889259,87.40625 L342.97715,87.40625 C343.609962,85.1386719 345.244728,83.8378906 347.441993,83.8378906 C348.004493,83.8378906 348.496681,83.9433594 348.813087,84.0136719 L348.813087,87.96875 C348.443946,87.828125 347.775978,87.7226562 347.037696,87.7226562 C344.559181,87.7226562 343.06504,89.3222656 343.06504,91.9414062 L343.06504,102.787109 L338.688087,102.787109 Z M356.82007,99.78125 C359.298585,99.78125 361.284914,98.1289062 361.284914,95.8789062 L361.284914,94.4550781 L356.978273,94.71875 C354.868898,94.859375 353.656007,95.8085938 353.656007,97.2851562 C353.656007,98.8144531 354.921632,99.78125 356.82007,99.78125 Z M355.50171,103.085938 C351.898195,103.085938 349.279054,100.818359 349.279054,97.4609375 C349.279054,94.15625 351.827882,92.1699219 356.363039,91.8886719 L361.284914,91.6074219 L361.284914,90.2714844 C361.284914,88.3203125 359.966554,87.1953125 357.804445,87.1953125 C355.730226,87.1953125 354.411867,88.1972656 354.130617,89.7441406 L350.07007,89.7441406 C350.263429,86.2636719 353.234132,83.7675781 357.980226,83.7675781 C362.603273,83.7675781 365.609132,86.2109375 365.609132,89.9550781 L365.609132,102.787109 L361.390382,102.787109 L361.390382,99.8164062 L361.302492,99.8164062 C360.230226,101.837891 357.892335,103.085938 355.50171,103.085938 Z M369.696193,79.7949219 L374.073146,79.7949219 L374.073146,84.1542969 L377.588771,84.1542969 L377.588771,87.5292969 L374.073146,87.5292969 L374.073146,97.2148438 C374.073146,98.7441406 374.776271,99.4472656 376.323146,99.4472656 C376.727443,99.4472656 377.289943,99.4121094 377.571193,99.359375 L377.571193,102.699219 C377.096584,102.804688 376.235256,102.875 375.303615,102.875 C371.278224,102.875 369.696193,101.451172 369.696193,97.8300781 L369.696193,87.5292969 L367.024318,87.5292969 L367.024318,84.1542969 L369.696193,84.1542969 L369.696193,79.7949219 Z M380.023488,102.787109 L380.023488,84.1542969 L384.400441,84.1542969 L384.400441,102.787109 L380.023488,102.787109 Z M382.203176,81.7109375 C380.84966,81.7109375 379.777395,80.65625 379.777395,79.3378906 C379.777395,78.0019531 380.84966,76.9472656 382.203176,76.9472656 C383.57427,76.9472656 384.646535,78.0019531 384.646535,79.3378906 C384.646535,80.65625 383.57427,81.7109375 382.203176,81.7109375 Z M395.676955,103.15625 C390.210158,103.15625 386.659377,99.5175781 386.659377,93.4707031 C386.659377,87.4589844 390.245315,83.7675781 395.676955,83.7675781 C401.108596,83.7675781 404.694533,87.4414062 404.694533,93.4707031 C404.694533,99.5175781 401.143752,103.15625 395.676955,103.15625 Z M395.676955,99.6933594 C398.454299,99.6933594 400.247268,97.4433594 400.247268,93.4707031 C400.247268,89.515625 398.454299,87.2480469 395.676955,87.2480469 C392.91719,87.2480469 391.106643,89.515625 391.106643,93.4707031 C391.106643,97.4433594 392.899612,99.6933594 395.676955,99.6933594 Z M406.865579,102.787109 L406.865579,84.1542969 L411.066751,84.1542969 L411.066751,87.3535156 L411.154641,87.3535156 C412.156594,85.1386719 414.142922,83.8027344 417.008157,83.8027344 C421.121438,83.8027344 423.459329,86.4394531 423.459329,90.7460938 L423.459329,102.787109 L419.082376,102.787109 L419.082376,91.625 C419.082376,88.9882812 417.851907,87.5117188 415.355813,87.5117188 C412.842141,87.5117188 411.242532,89.3222656 411.242532,91.9941406 L411.242532,102.787109 L406.865579,102.787109 Z" id="Code-Generation" fill="#666666"></path>
                <path id="Line" d="M150.5,69.25 L121.5,54.75 L121.5,83.75 L150.5,69.25 Z M0,71.75 L124,71.75 L126.5,71.75 L126.5,66.75 L124,66.75 L0,66.75 L-2.5,66.75 L-2.5,71.75 L0,71.75 Z" fill="#CCCCCC" fill-rule="nonzero"></path>
                <path d="M61.3339844,48.7871094 L59.171875,42.2304688 L49.8378906,42.2304688 L47.6757812,48.7871094 L43,48.7871094 L52,23.421875 L57.1152344,23.421875 L66.1152344,48.7871094 L61.3339844,48.7871094 Z M54.4433594,27.9042969 L50.8925781,38.7324219 L58.0996094,38.7324219 L54.5664062,27.9042969 L54.4433594,27.9042969 Z M66.4533534,41.6503906 L70.8478846,41.6503906 C71.1291346,43.9882812 73.4670253,45.5175781 76.5607753,45.5175781 C79.619369,45.5175781 81.7463221,44.0058594 81.7463221,41.8964844 C81.7463221,40.0683594 80.4455409,39.0136719 77.2463221,38.2578125 L73.9592128,37.484375 C69.2834315,36.4121094 67.0685878,34.1621094 67.0685878,30.5410156 C67.0685878,26.0410156 70.9885096,23 76.5080409,23 C82.0978846,23 85.7892909,26.0234375 85.8947596,30.4882812 L81.5705409,30.4882812 C81.3596034,28.1152344 79.3732753,26.6914062 76.4728846,26.6914062 C73.6076503,26.6914062 71.6740565,28.0976562 71.6740565,30.2070312 C71.6740565,31.8945312 72.9572596,32.8789062 76.0685878,33.6171875 L78.9865565,34.2851562 C84.1369471,35.4628906 86.3166346,37.5898438 86.3166346,41.3691406 C86.3166346,46.1855469 82.4494471,49.2089844 76.3146815,49.2089844 C70.478744,49.2089844 66.6467128,46.3261719 66.4533534,41.6503906 Z M99.4516286,48.7871094 L94.9340505,48.7871094 L94.9340505,27.2539062 L87.3403005,27.2539062 L87.3403005,23.421875 L107.027801,23.421875 L107.027801,27.2539062 L99.4516286,27.2539062 L99.4516286,48.7871094 Z" id="AST" fill="#666666"></path>
            </g>
            <g id="Execution" transform="translate(1205.000000, 25.000000)">
                <rect id="Rectangle-2" fill="#DDDDDD" fill-rule="nonzero" x="175" y="0" width="330" height="137.5" rx="36"></rect>
                <path d="M282.417969,53.0078125 L282.417969,56.8398438 L266,56.8398438 L266,31.4746094 L282.417969,31.4746094 L282.417969,35.3066406 L270.535156,35.3066406 L270.535156,42.1621094 L281.767578,42.1621094 L281.767578,45.765625 L270.535156,45.765625 L270.535156,53.0078125 L282.417969,53.0078125 Z M292.551905,50.1601562 L292.464014,50.1601562 L288.596826,56.8398438 L283.938623,56.8398438 L289.950342,47.5410156 L283.991358,38.2070312 L288.913233,38.2070312 L292.674951,44.7460938 L292.762842,44.7460938 L296.471826,38.2070312 L301.270655,38.2070312 L295.276514,47.4179688 L301.200342,56.8398438 L296.419092,56.8398438 L292.551905,50.1601562 Z M310.437794,41.2128906 C307.976856,41.2128906 306.201465,43.09375 306.025684,45.6953125 L314.726856,45.6953125 C314.638965,43.0585938 312.951465,41.2128906 310.437794,41.2128906 Z M314.744434,51.2675781 L318.840137,51.2675781 C318.277637,54.7832031 315.008106,57.2089844 310.595997,57.2089844 C305.006153,57.2089844 301.631153,53.5351562 301.631153,47.59375 C301.631153,41.7050781 305.041309,37.8203125 310.420215,37.8203125 C315.711231,37.8203125 319.015919,41.4941406 319.015919,47.1542969 L319.015919,48.578125 L305.990528,48.578125 L305.990528,48.8417969 C305.990528,51.8300781 307.818653,53.8339844 310.683887,53.8339844 C312.72295,53.8339844 314.269825,52.8144531 314.744434,51.2675781 Z M337.604933,44.8515625 L333.474073,44.8515625 C333.122511,42.8652344 331.733839,41.3710938 329.395948,41.3710938 C326.636183,41.3710938 324.860792,43.6914062 324.860792,47.5234375 C324.860792,51.4257812 326.653761,53.6757812 329.431104,53.6757812 C331.645948,53.6757812 333.087354,52.4101562 333.491651,50.3007812 L337.622511,50.3007812 C337.270948,54.4667969 334.054151,57.2089844 329.37837,57.2089844 C323.929151,57.2089844 320.413526,53.5703125 320.413526,47.5234375 C320.413526,41.5644531 323.929151,37.8203125 329.343214,37.8203125 C334.265089,37.8203125 337.306104,40.9316406 337.604933,44.8515625 Z M356.106056,38.2070312 L356.106056,56.8398438 L351.887306,56.8398438 L351.887306,53.6054688 L351.799415,53.6054688 C350.81504,55.8730469 348.934181,57.1738281 346.104103,57.1738281 C342.061134,57.1738281 339.494728,54.5546875 339.494728,50.2480469 L339.494728,38.2070312 L343.871681,38.2070312 L343.871681,49.3691406 C343.871681,52.0410156 345.172462,53.4824219 347.6334,53.4824219 C350.16465,53.4824219 351.729103,51.6894531 351.729103,48.9824219 L351.729103,38.2070312 L356.106056,38.2070312 Z M360.245851,33.8476562 L364.622804,33.8476562 L364.622804,38.2070312 L368.138429,38.2070312 L368.138429,41.5820312 L364.622804,41.5820312 L364.622804,51.2675781 C364.622804,52.796875 365.325929,53.5 366.872804,53.5 C367.277101,53.5 367.839601,53.4648438 368.120851,53.4121094 L368.120851,56.7519531 C367.646242,56.8574219 366.784914,56.9277344 365.853273,56.9277344 C361.827882,56.9277344 360.245851,55.5039062 360.245851,51.8828125 L360.245851,41.5820312 L357.573976,41.5820312 L357.573976,38.2070312 L360.245851,38.2070312 L360.245851,33.8476562 Z M370.573146,56.8398438 L370.573146,38.2070312 L374.9501,38.2070312 L374.9501,56.8398438 L370.573146,56.8398438 Z M372.752834,35.7636719 C371.399318,35.7636719 370.327053,34.7089844 370.327053,33.390625 C370.327053,32.0546875 371.399318,31 372.752834,31 C374.123928,31 375.196193,32.0546875 375.196193,33.390625 C375.196193,34.7089844 374.123928,35.7636719 372.752834,35.7636719 Z M386.226614,57.2089844 C380.759817,57.2089844 377.209035,53.5703125 377.209035,47.5234375 C377.209035,41.5117188 380.794973,37.8203125 386.226614,37.8203125 C391.658254,37.8203125 395.244192,41.4941406 395.244192,47.5234375 C395.244192,53.5703125 391.69341,57.2089844 386.226614,57.2089844 Z M386.226614,53.7460938 C389.003957,53.7460938 390.796926,51.4960938 390.796926,47.5234375 C390.796926,43.5683594 389.003957,41.3007812 386.226614,41.3007812 C383.466848,41.3007812 381.656301,43.5683594 381.656301,47.5234375 C381.656301,51.4960938 383.44927,53.7460938 386.226614,53.7460938 Z M397.415237,56.8398438 L397.415237,38.2070312 L401.616409,38.2070312 L401.616409,41.40625 L401.704299,41.40625 C402.706253,39.1914062 404.692581,37.8554688 407.557815,37.8554688 C411.671096,37.8554688 414.008987,40.4921875 414.008987,44.7988281 L414.008987,56.8398438 L409.632034,56.8398438 L409.632034,45.6777344 C409.632034,43.0410156 408.401565,41.5644531 405.905471,41.5644531 C403.391799,41.5644531 401.79219,43.375 401.79219,46.046875 L401.79219,56.8398438 L397.415237,56.8398438 Z M305.546607,96.0078125 L305.546607,99.8398438 L289.128638,99.8398438 L289.128638,74.4746094 L305.546607,74.4746094 L305.546607,78.3066406 L293.663794,78.3066406 L293.663794,85.1621094 L304.896216,85.1621094 L304.896216,88.765625 L293.663794,88.765625 L293.663794,96.0078125 L305.546607,96.0078125 Z M308.403199,99.8398438 L308.403199,81.2070312 L312.604371,81.2070312 L312.604371,84.40625 L312.692262,84.40625 C313.694215,82.1914062 315.680543,80.8554688 318.545777,80.8554688 C322.659058,80.8554688 324.996949,83.4921875 324.996949,87.7988281 L324.996949,99.8398438 L320.619996,99.8398438 L320.619996,88.6777344 C320.619996,86.0410156 319.389527,84.5644531 316.893433,84.5644531 C314.379762,84.5644531 312.780152,86.375 312.780152,89.046875 L312.780152,99.8398438 L308.403199,99.8398438 Z M336.080104,96.3769531 C338.875026,96.3769531 340.685572,94.109375 340.685572,90.4707031 C340.685572,86.8496094 338.875026,84.4941406 336.080104,84.4941406 C333.320338,84.4941406 331.562526,86.8144531 331.562526,90.4707031 C331.562526,94.1621094 333.320338,96.3769531 336.080104,96.3769531 Z M336.062526,106.871094 C331.457057,106.871094 328.152369,104.515625 327.712916,101.246094 L332.054713,101.246094 C332.529322,102.669922 334.128932,103.636719 336.203151,103.636719 C339.050807,103.636719 340.685572,102.037109 340.685572,99.6640625 L340.685572,96.5175781 L340.580104,96.5175781 C339.613307,98.5214844 337.416041,99.8574219 334.744166,99.8574219 C330.138697,99.8574219 327.080104,96.2539062 327.080104,90.453125 C327.080104,84.5644531 330.068385,80.890625 334.832057,80.890625 C337.486354,80.890625 339.630885,82.2617188 340.703151,84.40625 L340.773463,84.40625 L340.773463,81.2070312 L345.062526,81.2070312 L345.062526,99.5410156 C345.062526,103.988281 341.494166,106.871094 336.062526,106.871094 Z M348.094899,99.8398438 L348.094899,81.2070312 L352.471852,81.2070312 L352.471852,99.8398438 L348.094899,99.8398438 Z M350.274586,78.7636719 C348.921071,78.7636719 347.848805,77.7089844 347.848805,76.390625 C347.848805,75.0546875 348.921071,74 350.274586,74 C351.64568,74 352.717946,75.0546875 352.717946,76.390625 C352.717946,77.7089844 351.64568,78.7636719 350.274586,78.7636719 Z M355.504225,99.8398438 L355.504225,81.2070312 L359.705397,81.2070312 L359.705397,84.40625 L359.793288,84.40625 C360.795241,82.1914062 362.781569,80.8554688 365.646804,80.8554688 C369.760085,80.8554688 372.097975,83.4921875 372.097975,87.7988281 L372.097975,99.8398438 L367.721022,99.8398438 L367.721022,88.6777344 C367.721022,86.0410156 366.490554,84.5644531 363.99446,84.5644531 C361.480788,84.5644531 359.881179,86.375 359.881179,89.046875 L359.881179,99.8398438 L355.504225,99.8398438 Z M382.987771,84.2128906 C380.526833,84.2128906 378.751443,86.09375 378.575661,88.6953125 L387.276833,88.6953125 C387.188943,86.0585938 385.501443,84.2128906 382.987771,84.2128906 Z M387.294411,94.2675781 L391.390114,94.2675781 C390.827614,97.7832031 387.558083,100.208984 383.145974,100.208984 C377.55613,100.208984 374.18113,96.5351562 374.18113,90.59375 C374.18113,84.7050781 377.591286,80.8203125 382.970193,80.8203125 C388.261208,80.8203125 391.565896,84.4941406 391.565896,90.1542969 L391.565896,91.578125 L378.540505,91.578125 L378.540505,91.8417969 C378.540505,94.8300781 380.36863,96.8339844 383.233864,96.8339844 C385.272927,96.8339844 386.819802,95.8144531 387.294411,94.2675781 Z" id="Execution-Engine" fill="#666666"></path>
                <path id="Line" d="M150.5,69.25 L121.5,54.75 L121.5,83.75 L150.5,69.25 Z M0,71.75 L124,71.75 L126.5,71.75 L126.5,66.75 L124,66.75 L0,66.75 L-2.5,66.75 L-2.5,71.75 L0,71.75 Z" fill="#CCCCCC" fill-rule="nonzero"></path>
                <path d="M61.3339844,48.7871094 L59.171875,42.2304688 L49.8378906,42.2304688 L47.6757812,48.7871094 L43,48.7871094 L52,23.421875 L57.1152344,23.421875 L66.1152344,48.7871094 L61.3339844,48.7871094 Z M54.4433594,27.9042969 L50.8925781,38.7324219 L58.0996094,38.7324219 L54.5664062,27.9042969 L54.4433594,27.9042969 Z M66.4533534,41.6503906 L70.8478846,41.6503906 C71.1291346,43.9882812 73.4670253,45.5175781 76.5607753,45.5175781 C79.619369,45.5175781 81.7463221,44.0058594 81.7463221,41.8964844 C81.7463221,40.0683594 80.4455409,39.0136719 77.2463221,38.2578125 L73.9592128,37.484375 C69.2834315,36.4121094 67.0685878,34.1621094 67.0685878,30.5410156 C67.0685878,26.0410156 70.9885096,23 76.5080409,23 C82.0978846,23 85.7892909,26.0234375 85.8947596,30.4882812 L81.5705409,30.4882812 C81.3596034,28.1152344 79.3732753,26.6914062 76.4728846,26.6914062 C73.6076503,26.6914062 71.6740565,28.0976562 71.6740565,30.2070312 C71.6740565,31.8945312 72.9572596,32.8789062 76.0685878,33.6171875 L78.9865565,34.2851562 C84.1369471,35.4628906 86.3166346,37.5898438 86.3166346,41.3691406 C86.3166346,46.1855469 82.4494471,49.2089844 76.3146815,49.2089844 C70.478744,49.2089844 66.6467128,46.3261719 66.4533534,41.6503906 Z M99.4516286,48.7871094 L94.9340505,48.7871094 L94.9340505,27.2539062 L87.3403005,27.2539062 L87.3403005,23.421875 L107.027801,23.421875 L107.027801,27.2539062 L99.4516286,27.2539062 L99.4516286,48.7871094 Z" id="AST" fill="#666666"></path>
            </g>
        </g>
    </g>
</svg>