<?xml version="1.0" encoding="UTF-8"?>
<svg width="1710px" height="350px" viewBox="0 0 1710 350" version="1.1" xmlns="http://www.w3.org/2000/svg" xmlns:xlink="http://www.w3.org/1999/xlink">
    <!-- Generator: Sketch 51.1 (57501) - http://www.bohemiancoding.com/sketch -->
    <title>Compiler Stages</title>
    <desc>Created with Sketch.</desc>
    <defs></defs>
    <g id="Page-1" stroke="none" stroke-width="1" fill="none" fill-rule="evenodd">
        <g id="Stages" transform="translate(-105.000000, -131.000000)">
            <g id="Compiler-Stages" transform="translate(105.000000, 131.000000)">
                <rect id="Rectangle-3" fill-opacity="0.1" fill="#007AFF" fill-rule="nonzero" x="0" y="0" width="890" height="350" rx="36"></rect>
                <g id="Parser" transform="translate(715.000000, 25.000000)">
                    <rect id="Rectangle-2" fill="#DDDDDD" fill-rule="nonzero" x="200" y="0" width="265" height="300" rx="36"></rect>
                    <path d="M258,130 L273.339844,130 C281.1875,130 286.628906,135.332031 286.628906,143.207031 C286.628906,151.082031 281.023438,156.414062 273.039062,156.414062 L265.054688,156.414062 L265.054688,169.457031 L258,169.457031 L258,130 Z M265.054688,135.769531 L265.054688,150.726562 L271.453125,150.726562 C276.511719,150.726562 279.464844,147.992188 279.464844,143.207031 C279.464844,138.476562 276.539062,135.769531 271.480469,135.769531 L265.054688,135.769531 Z M298.564682,164.78125 C302.42015,164.78125 305.509994,162.210938 305.509994,158.710938 L305.509994,156.496094 L298.810775,156.90625 C295.529525,157.125 293.642807,158.601562 293.642807,160.898438 C293.642807,163.277344 295.611557,164.78125 298.564682,164.78125 Z M296.5139,169.921875 C290.908432,169.921875 286.834213,166.394531 286.834213,161.171875 C286.834213,156.03125 290.799057,152.941406 297.853744,152.503906 L305.509994,152.066406 L305.509994,149.988281 C305.509994,146.953125 303.459213,145.203125 300.095932,145.203125 C296.869369,145.203125 294.818588,146.761719 294.381088,149.167969 L288.064682,149.167969 C288.365463,143.753906 292.986557,139.871094 300.369369,139.871094 C307.560775,139.871094 312.236557,143.671875 312.236557,149.496094 L312.236557,169.457031 L305.674057,169.457031 L305.674057,164.835938 L305.537338,164.835938 C303.869369,167.980469 300.23265,169.921875 296.5139,169.921875 Z M316.707488,169.457031 L316.707488,140.472656 L323.242644,140.472656 L323.242644,145.53125 L323.379363,145.53125 C324.363738,142.003906 326.906707,139.980469 330.324676,139.980469 C331.199676,139.980469 331.965301,140.144531 332.457488,140.253906 L332.457488,146.40625 C331.883269,146.1875 330.844207,146.023438 329.695769,146.023438 C325.840301,146.023438 323.516082,148.511719 323.516082,152.585938 L323.516082,169.457031 L316.707488,169.457031 Z M334.440138,148.785156 C334.440138,143.480469 339.11592,139.871094 346.170607,139.871094 C352.979201,139.871094 357.600295,143.535156 357.764357,148.894531 L351.420607,148.894531 C351.201857,146.40625 349.205763,144.875 346.033888,144.875 C343.026076,144.875 341.057326,146.296875 341.057326,148.402344 C341.057326,150.042969 342.369826,151.136719 345.213576,151.820312 L350.381545,152.96875 C356.17842,154.335938 358.447951,156.578125 358.447951,160.871094 C358.447951,166.339844 353.389357,170.03125 346.061232,170.03125 C338.787795,170.03125 334.166701,166.421875 333.701857,160.925781 L340.401076,160.925781 C340.811232,163.578125 342.862013,165.054688 346.307326,165.054688 C349.61592,165.054688 351.666701,163.714844 351.666701,161.554688 C351.666701,159.859375 350.600295,158.957031 347.783888,158.246094 L342.506545,157.015625 C337.14717,155.757812 334.440138,152.96875 334.440138,148.785156 Z M374.293882,145.148438 C370.465757,145.148438 367.704039,148.074219 367.430601,152.121094 L380.965757,152.121094 C380.829039,148.019531 378.204039,145.148438 374.293882,145.148438 Z M380.993101,160.789062 L387.364195,160.789062 C386.489195,166.257812 381.403257,170.03125 374.539976,170.03125 C365.844664,170.03125 360.594664,164.316406 360.594664,155.074219 C360.594664,145.914062 365.899351,139.871094 374.266539,139.871094 C382.497007,139.871094 387.637632,145.585938 387.637632,154.390625 L387.637632,156.605469 L367.375914,156.605469 L367.375914,157.015625 C367.375914,161.664062 370.219664,164.78125 374.676695,164.78125 C377.84857,164.78125 380.25482,163.195312 380.993101,160.789062 Z M391.014814,169.457031 L391.014814,140.472656 L397.54997,140.472656 L397.54997,145.53125 L397.686689,145.53125 C398.671064,142.003906 401.214033,139.980469 404.632001,139.980469 C405.507001,139.980469 406.272626,140.144531 406.764814,140.253906 L406.764814,146.40625 C406.190595,146.1875 405.151533,146.023438 404.003095,146.023438 C400.147626,146.023438 397.823408,148.511719 397.823408,152.585938 L397.823408,169.457031 L391.014814,169.457031 Z" fill="#666666"></path>
                    <path id="Line" d="M121.5,152.75 L0,152.75 L-2.5,152.75 L-2.5,147.75 L0,147.75 L121.5,147.75 L121.5,135.75 L150.5,150.25 L121.5,164.75 L121.5,152.75 Z" fill-opacity="0.5" fill="#007AFF" fill-rule="nonzero"></path>
                    <path d="M34.7952133,129 L30.2776352,129 L30.2776352,107.466797 L22.6838852,107.466797 L22.6838852,103.634766 L42.3713852,103.634766 L42.3713852,107.466797 L34.7952133,107.466797 L34.7952133,129 Z M47.9126292,129.369141 C42.4458323,129.369141 38.8950511,125.730469 38.8950511,119.683594 C38.8950511,113.671875 42.4809886,109.980469 47.9126292,109.980469 C53.3442698,109.980469 56.9302073,113.654297 56.9302073,119.683594 C56.9302073,125.730469 53.3794261,129.369141 47.9126292,129.369141 Z M47.9126292,125.90625 C50.6899729,125.90625 52.4829417,123.65625 52.4829417,119.683594 C52.4829417,115.728516 50.6899729,113.460938 47.9126292,113.460938 C45.1528636,113.460938 43.3423167,115.728516 43.3423167,119.683594 C43.3423167,123.65625 45.1352854,125.90625 47.9126292,125.90625 Z M63.2976232,118.136719 L70.3112951,110.367188 L75.3562169,110.367188 L67.9030919,118.382812 L75.6726232,129 L70.6101232,129 L64.7214513,121.037109 L63.2448888,122.53125 L63.2448888,129 L58.8679357,129 L58.8679357,103.634766 L63.2448888,103.634766 L63.2448888,118.136719 L63.2976232,118.136719 Z M83.5693359,113.373047 C81.1083984,113.373047 79.3330078,115.253906 79.1572266,117.855469 L87.8583984,117.855469 C87.7705078,115.21875 86.0830078,113.373047 83.5693359,113.373047 Z M87.8759766,123.427734 L91.9716797,123.427734 C91.4091797,126.943359 88.1396484,129.369141 83.7275391,129.369141 C78.1376953,129.369141 74.7626953,125.695312 74.7626953,119.753906 C74.7626953,113.865234 78.1728516,109.980469 83.5517578,109.980469 C88.8427734,109.980469 92.1474609,113.654297 92.1474609,119.314453 L92.1474609,120.738281 L79.1220703,120.738281 L79.1220703,121.001953 C79.1220703,123.990234 80.9501953,125.994141 83.8154297,125.994141 C85.8544922,125.994141 87.4013672,124.974609 87.8759766,123.427734 Z M93.9621424,129 L93.9621424,110.367188 L98.1633143,110.367188 L98.1633143,113.566406 L98.2512049,113.566406 C99.2531581,111.351562 101.239486,110.015625 104.104721,110.015625 C108.218002,110.015625 110.555892,112.652344 110.555892,116.958984 L110.555892,129 L106.178939,129 L106.178939,117.837891 C106.178939,115.201172 104.948471,113.724609 102.452377,113.724609 C99.9387049,113.724609 98.3390956,115.535156 98.3390956,118.207031 L98.3390956,129 L93.9621424,129 Z M112.722136,115.710938 C112.722136,112.300781 115.727996,109.980469 120.263152,109.980469 C124.640105,109.980469 127.610808,112.335938 127.716277,115.78125 L123.638152,115.78125 C123.497527,114.181641 122.214324,113.197266 120.175261,113.197266 C118.241668,113.197266 116.976043,114.111328 116.976043,115.464844 C116.976043,116.519531 117.819793,117.222656 119.647918,117.662109 L122.970183,118.400391 C126.696746,119.279297 128.15573,120.720703 128.15573,123.480469 C128.15573,126.996094 124.903777,129.369141 120.19284,129.369141 C115.517058,129.369141 112.546355,127.048828 112.247527,123.515625 L116.554168,123.515625 C116.81784,125.220703 118.136199,126.169922 120.351043,126.169922 C122.477996,126.169922 123.796355,125.308594 123.796355,123.919922 C123.796355,122.830078 123.110808,122.25 121.300261,121.792969 L117.907683,121.001953 C114.462371,120.193359 112.722136,118.400391 112.722136,115.710938 Z" id="Tokens" fill="#007AFF"></path>
                </g>
                <g id="Lexer" transform="translate(28.000000, 82.000000)">
                    <rect id="Rectangle-2" fill="#007AFF" fill-rule="nonzero" x="397" y="0" width="265" height="186" rx="20"></rect>
                    <path d="M489.964844,106.496094 L489.964844,112.457031 L465,112.457031 L465,73 L472.054688,73 L472.054688,106.496094 L489.964844,106.496094 Z M505.291244,88.1484375 C501.463119,88.1484375 498.7014,91.0742188 498.427963,95.1210938 L511.963119,95.1210938 C511.8264,91.0195312 509.2014,88.1484375 505.291244,88.1484375 Z M511.990463,103.789062 L518.361556,103.789062 C517.486556,109.257812 512.400619,113.03125 505.537338,113.03125 C496.842025,113.03125 491.592025,107.316406 491.592025,98.0742188 C491.592025,88.9140625 496.896713,82.8710938 505.2639,82.8710938 C513.494369,82.8710938 518.634994,88.5859375 518.634994,97.390625 L518.634994,99.6054688 L498.373275,99.6054688 L498.373275,100.015625 C498.373275,104.664062 501.217025,107.78125 505.674056,107.78125 C508.845931,107.78125 511.252181,106.195312 511.990463,103.789062 Z M532.867644,102.066406 L532.730925,102.066406 L526.7153,112.457031 L519.469207,112.457031 L528.820769,97.9921875 L519.551238,83.4726562 L527.207488,83.4726562 L533.05905,93.6445312 L533.195769,93.6445312 L538.9653,83.4726562 L546.430144,83.4726562 L537.105925,97.8007812 L546.320769,112.457031 L538.883269,112.457031 L532.867644,102.066406 Z M560.690138,88.1484375 C556.862013,88.1484375 554.100294,91.0742188 553.826857,95.1210938 L567.362013,95.1210938 C567.225294,91.0195312 564.600294,88.1484375 560.690138,88.1484375 Z M567.389357,103.789062 L573.760451,103.789062 C572.885451,109.257812 567.799513,113.03125 560.936232,113.03125 C552.240919,113.03125 546.990919,107.316406 546.990919,98.0742188 C546.990919,88.9140625 552.295607,82.8710938 560.662794,82.8710938 C568.893263,82.8710938 574.033888,88.5859375 574.033888,97.390625 L574.033888,99.6054688 L553.772169,99.6054688 L553.772169,100.015625 C553.772169,104.664062 556.615919,107.78125 561.072951,107.78125 C564.244826,107.78125 566.651076,106.195312 567.389357,103.789062 Z M577.41107,112.457031 L577.41107,83.4726562 L583.946226,83.4726562 L583.946226,88.53125 L584.082945,88.53125 C585.06732,85.0039062 587.610288,82.9804688 591.028257,82.9804688 C591.903257,82.9804688 592.668882,83.1445312 593.16107,83.2539062 L593.16107,89.40625 C592.586851,89.1875 591.547788,89.0234375 590.399351,89.0234375 C586.543882,89.0234375 584.219663,91.5117188 584.219663,95.5859375 L584.219663,112.457031 L577.41107,112.457031 Z" fill="#FFFFFF"></path>
                    <path id="Line" d="M343.5,95.75 L222,95.75 L219.5,95.75 L219.5,90.75 L222,90.75 L343.5,90.75 L343.5,78.75 L372.5,93.25 L343.5,107.75 L343.5,95.75 Z" fill-opacity="0.5" fill="#007AFF" fill-rule="nonzero"></path>
                    <path d="M0.974329875,98.8632812 L5.36886112,98.8632812 C5.65011112,101.201172 7.98800175,102.730469 11.0817517,102.730469 C14.1403455,102.730469 16.2672986,101.21875 16.2672986,99.109375 C16.2672986,97.28125 14.9665174,96.2265625 11.7672986,95.4707031 L8.48018925,94.6972656 C3.804408,93.625 1.58956425,91.375 1.58956425,87.7539062 C1.58956425,83.2539062 5.50948612,80.2128906 11.0290174,80.2128906 C16.6188611,80.2128906 20.3102674,83.2363281 20.4157361,87.7011719 L16.0915174,87.7011719 C15.8805799,85.328125 13.8942517,83.9042969 10.9938611,83.9042969 C8.12862675,83.9042969 6.195033,85.3105469 6.195033,87.4199219 C6.195033,89.1074219 7.47823612,90.0917969 10.5895642,90.8300781 L13.507533,91.4980469 C18.6579236,92.6757812 20.8376111,94.8027344 20.8376111,98.5820312 C20.8376111,103.398438 16.9704236,106.421875 10.835658,106.421875 C4.9997205,106.421875 1.16768925,103.539062 0.974329875,98.8632812 Z M31.0546364,106.369141 C25.5878395,106.369141 22.0370582,102.730469 22.0370582,96.6835938 C22.0370582,90.671875 25.6229957,86.9804688 31.0546364,86.9804688 C36.486277,86.9804688 40.0722145,90.6542969 40.0722145,96.6835938 C40.0722145,102.730469 36.5214332,106.369141 31.0546364,106.369141 Z M31.0546364,102.90625 C33.8319801,102.90625 35.6249489,100.65625 35.6249489,96.6835938 C35.6249489,92.7285156 33.8319801,90.4609375 31.0546364,90.4609375 C28.2948707,90.4609375 26.4843239,92.7285156 26.4843239,96.6835938 C26.4843239,100.65625 28.2772926,102.90625 31.0546364,102.90625 Z M58.4103335,87.3671875 L58.4103335,106 L54.1915835,106 L54.1915835,102.765625 L54.1036929,102.765625 C53.1193179,105.033203 51.2384585,106.333984 48.4083804,106.333984 C44.3654116,106.333984 41.7990054,103.714844 41.7990054,99.4082031 L41.7990054,87.3671875 L46.1759585,87.3671875 L46.1759585,98.5292969 C46.1759585,101.201172 47.4767397,102.642578 49.9376772,102.642578 C52.4689272,102.642578 54.0333804,100.849609 54.0333804,98.1425781 L54.0333804,87.3671875 L58.4103335,87.3671875 Z M60.9808744,106 L60.9808744,87.3671875 L65.1820462,87.3671875 L65.1820462,90.6191406 L65.2699369,90.6191406 C65.9027494,88.3515625 67.537515,87.0507812 69.7347806,87.0507812 C70.2972806,87.0507812 70.7894681,87.15625 71.1058744,87.2265625 L71.1058744,91.1816406 C70.7367337,91.0410156 70.068765,90.9355469 69.3304837,90.9355469 C66.8519681,90.9355469 65.3578275,92.5351562 65.3578275,95.1542969 L65.3578275,106 L60.9808744,106 Z M88.0728996,94.0117188 L83.9420402,94.0117188 C83.5904777,92.0253906 82.2018059,90.53125 79.8639152,90.53125 C77.1041496,90.53125 75.328759,92.8515625 75.328759,96.6835938 C75.328759,100.585938 77.1217277,102.835938 79.8990715,102.835938 C82.1139152,102.835938 83.5553215,101.570312 83.9596184,99.4609375 L88.0904777,99.4609375 C87.7389152,103.626953 84.5221184,106.369141 79.8463371,106.369141 C74.3971184,106.369141 70.8814934,102.730469 70.8814934,96.6835938 C70.8814934,90.7246094 74.3971184,86.9804688 79.8111809,86.9804688 C84.7330559,86.9804688 87.7740715,90.0917969 88.0728996,94.0117188 Z M97.7274249,90.3730469 C95.2664874,90.3730469 93.4910967,92.2539062 93.3153155,94.8554688 L102.016487,94.8554688 C101.928597,92.21875 100.241097,90.3730469 97.7274249,90.3730469 Z M102.034065,100.427734 L106.129769,100.427734 C105.567269,103.943359 102.297737,106.369141 97.885628,106.369141 C92.2957842,106.369141 88.9207842,102.695312 88.9207842,96.7539062 C88.9207842,90.8652344 92.3309405,86.9804688 97.7098467,86.9804688 C103.000862,86.9804688 106.30555,90.6542969 106.30555,96.3144531 L106.30555,97.7382812 L93.2801592,97.7382812 L93.2801592,98.0019531 C93.2801592,100.990234 95.1082842,102.994141 97.9735186,102.994141 C100.012581,102.994141 101.559456,101.974609 102.034065,100.427734 Z M125.702491,106.421875 C118.460303,106.421875 113.907569,101.447266 113.907569,93.3085938 C113.907569,85.2226562 118.49546,80.2128906 125.702491,80.2128906 C131.591163,80.2128906 136.073585,83.8867188 136.636085,89.3359375 L132.171241,89.3359375 C131.573585,86.1542969 128.9896,84.0625 125.702491,84.0625 C121.343116,84.0625 118.548194,87.6484375 118.548194,93.3085938 C118.548194,99.0039062 121.325538,102.572266 125.720069,102.572266 C129.077491,102.572266 131.485694,100.761719 132.188819,97.703125 L136.636085,97.703125 C135.845069,103.134766 131.696632,106.421875 125.702491,106.421875 Z M146.870688,106.369141 C141.403891,106.369141 137.85311,102.730469 137.85311,96.6835938 C137.85311,90.671875 141.439047,86.9804688 146.870688,86.9804688 C152.302329,86.9804688 155.888266,90.6542969 155.888266,96.6835938 C155.888266,102.730469 152.337485,106.369141 146.870688,106.369141 Z M146.870688,102.90625 C149.648032,102.90625 151.441001,100.65625 151.441001,96.6835938 C151.441001,92.7285156 149.648032,90.4609375 146.870688,90.4609375 C144.110922,90.4609375 142.300376,92.7285156 142.300376,96.6835938 C142.300376,100.65625 144.093344,102.90625 146.870688,102.90625 Z M164.663885,106.298828 C159.970526,106.298828 156.92951,102.589844 156.92951,96.6660156 C156.92951,90.7773438 159.970526,87.0507812 164.663885,87.0507812 C167.33576,87.0507812 169.445135,88.4394531 170.42951,90.4960938 L170.534979,90.4960938 L170.534979,80.6347656 L174.911932,80.6347656 L174.911932,106 L170.62287,106 L170.62287,102.818359 L170.552557,102.818359 C169.533026,104.910156 167.388495,106.298828 164.663885,106.298828 Z M165.982245,90.6542969 C163.169745,90.6542969 161.411932,92.9921875 161.411932,96.6835938 C161.411932,100.392578 163.152166,102.712891 165.982245,102.712891 C168.74201,102.712891 170.552557,100.375 170.552557,96.6835938 C170.552557,93.0273438 168.74201,90.6542969 165.982245,90.6542969 Z M185.621145,90.3730469 C183.160207,90.3730469 181.384817,92.2539062 181.209035,94.8554688 L189.910207,94.8554688 C189.822317,92.21875 188.134817,90.3730469 185.621145,90.3730469 Z M189.927785,100.427734 L194.023489,100.427734 C193.460989,103.943359 190.191457,106.369141 185.779348,106.369141 C180.189504,106.369141 176.814504,102.695312 176.814504,96.7539062 C176.814504,90.8652344 180.22466,86.9804688 185.603567,86.9804688 C190.894582,86.9804688 194.19927,90.6542969 194.19927,96.3144531 L194.19927,97.7382812 L181.173879,97.7382812 L181.173879,98.0019531 C181.173879,100.990234 183.002004,102.994141 185.867239,102.994141 C187.906301,102.994141 189.453176,101.974609 189.927785,100.427734 Z" id="Source-Code" fill="#007AFF"></path>
                </g>
                <g id="Codegen" transform="translate(1205.000000, 187.000000)">
                    <rect id="Rectangle-2" fill="#DDDDDD" fill-rule="nonzero" x="175" y="0" width="330" height="137.5" rx="36"></rect>
                    <path d="M311.186964,60.2089844 C303.944776,60.2089844 299.392042,55.234375 299.392042,47.0957031 C299.392042,39.0097656 303.979932,34 311.186964,34 C317.075636,34 321.558057,37.6738281 322.120557,43.1230469 L317.655714,43.1230469 C317.058057,39.9414062 314.474073,37.8496094 311.186964,37.8496094 C306.827589,37.8496094 304.032667,41.4355469 304.032667,47.0957031 C304.032667,52.7910156 306.810011,56.359375 311.204542,56.359375 C314.561964,56.359375 316.970167,54.5488281 317.673292,51.4902344 L322.120557,51.4902344 C321.329542,56.921875 317.181104,60.2089844 311.186964,60.2089844 Z M332.711525,60.15625 C327.244728,60.15625 323.693946,56.5175781 323.693946,50.4707031 C323.693946,44.4589844 327.279884,40.7675781 332.711525,40.7675781 C338.143165,40.7675781 341.729103,44.4414062 341.729103,50.4707031 C341.729103,56.5175781 338.178321,60.15625 332.711525,60.15625 Z M332.711525,56.6933594 C335.488868,56.6933594 337.281837,54.4433594 337.281837,50.4707031 C337.281837,46.515625 335.488868,44.2480469 332.711525,44.2480469 C329.951759,44.2480469 328.141212,46.515625 328.141212,50.4707031 C328.141212,54.4433594 329.934181,56.6933594 332.711525,56.6933594 Z M350.861085,60.0859375 C346.167726,60.0859375 343.12671,56.3769531 343.12671,50.453125 C343.12671,44.5644531 346.167726,40.8378906 350.861085,40.8378906 C353.53296,40.8378906 355.642335,42.2265625 356.62671,44.2832031 L356.732179,44.2832031 L356.732179,34.421875 L361.109132,34.421875 L361.109132,59.7871094 L356.82007,59.7871094 L356.82007,56.6054688 L356.749757,56.6054688 C355.730226,58.6972656 353.585695,60.0859375 350.861085,60.0859375 Z M352.179445,44.4414062 C349.366945,44.4414062 347.609132,46.7792969 347.609132,50.4707031 C347.609132,54.1796875 349.349367,56.5 352.179445,56.5 C354.93921,56.5 356.749757,54.1621094 356.749757,50.4707031 C356.749757,46.8144531 354.93921,44.4414062 352.179445,44.4414062 Z M372.174709,44.1601562 C369.713771,44.1601562 367.938381,46.0410156 367.762599,48.6425781 L376.463771,48.6425781 C376.375881,46.0058594 374.688381,44.1601562 372.174709,44.1601562 Z M376.481349,54.2148438 L380.577052,54.2148438 C380.014552,57.7304688 376.745021,60.15625 372.332912,60.15625 C366.743068,60.15625 363.368068,56.4824219 363.368068,50.5410156 C363.368068,44.6523438 366.778224,40.7675781 372.157131,40.7675781 C377.448146,40.7675781 380.752834,44.4414062 380.752834,50.1015625 L380.752834,51.5253906 L367.727443,51.5253906 L367.727443,51.7890625 C367.727443,54.7773438 369.555568,56.78125 372.420802,56.78125 C374.459865,56.78125 376.00674,55.7617188 376.481349,54.2148438 Z M279.0625,92.2050781 C279.0625,99.078125 274.949219,103.208984 268.005859,103.208984 C260.605469,103.208984 256,98.1816406 256,90.0078125 C256,81.9570312 260.587891,77 267.917969,77 C273.683594,77 278.042969,80.4101562 278.869141,85.4902344 L274.263672,85.4902344 C273.402344,82.5722656 271.046875,80.8496094 267.935547,80.8496094 C263.365234,80.8496094 260.640625,84.2421875 260.640625,89.9550781 C260.640625,95.7910156 263.488281,99.359375 268.058594,99.359375 C271.890625,99.359375 274.544922,96.9335938 274.615234,93.3828125 L274.632812,92.9609375 L268.515625,92.9609375 L268.515625,89.4980469 L279.0625,89.4980469 L279.0625,92.2050781 Z M289.706201,87.1601562 C287.245264,87.1601562 285.469873,89.0410156 285.294092,91.6425781 L293.995264,91.6425781 C293.907373,89.0058594 292.219873,87.1601562 289.706201,87.1601562 Z M294.012842,97.2148438 L298.108545,97.2148438 C297.546045,100.730469 294.276514,103.15625 289.864405,103.15625 C284.274561,103.15625 280.899561,99.4824219 280.899561,93.5410156 C280.899561,87.6523438 284.309717,83.7675781 289.688623,83.7675781 C294.979639,83.7675781 298.284326,87.4414062 298.284326,93.1015625 L298.284326,94.5253906 L285.258936,94.5253906 L285.258936,94.7890625 C285.258936,97.7773438 287.087061,99.78125 289.952295,99.78125 C291.991358,99.78125 293.538233,98.7617188 294.012842,97.2148438 Z M300.455372,102.787109 L300.455372,84.1542969 L304.656544,84.1542969 L304.656544,87.3535156 L304.744434,87.3535156 C305.746387,85.1386719 307.732715,83.8027344 310.59795,83.8027344 C314.711231,83.8027344 317.049122,86.4394531 317.049122,90.7460938 L317.049122,102.787109 L312.672169,102.787109 L312.672169,91.625 C312.672169,88.9882812 311.4417,87.5117188 308.945606,87.5117188 C306.431934,87.5117188 304.832325,89.3222656 304.832325,91.9941406 L304.832325,102.787109 L300.455372,102.787109 Z M327.938917,87.1601562 C325.477979,87.1601562 323.702589,89.0410156 323.526807,91.6425781 L332.227979,91.6425781 C332.140089,89.0058594 330.452589,87.1601562 327.938917,87.1601562 Z M332.245557,97.2148438 L336.341261,97.2148438 C335.778761,100.730469 332.509229,103.15625 328.09712,103.15625 C322.507276,103.15625 319.132276,99.4824219 319.132276,93.5410156 C319.132276,87.6523438 322.542432,83.7675781 327.921339,83.7675781 C333.212354,83.7675781 336.517042,87.4414062 336.517042,93.1015625 L336.517042,94.5253906 L323.491651,94.5253906 L323.491651,94.7890625 C323.491651,97.7773438 325.319776,99.78125 328.185011,99.78125 C330.224073,99.78125 331.770948,98.7617188 332.245557,97.2148438 Z M338.688087,102.787109 L338.688087,84.1542969 L342.889259,84.1542969 L342.889259,87.40625 L342.97715,87.40625 C343.609962,85.1386719 345.244728,83.8378906 347.441993,83.8378906 C348.004493,83.8378906 348.496681,83.9433594 348.813087,84.0136719 L348.813087,87.96875 C348.443946,87.828125 347.775978,87.7226562 347.037696,87.7226562 C344.559181,87.7226562 343.06504,89.3222656 343.06504,91.9414062 L343.06504,102.787109 L338.688087,102.787109 Z M356.82007,99.78125 C359.298585,99.78125 361.284914,98.1289062 361.284914,95.8789062 L361.284914,94.4550781 L356.978273,94.71875 C354.868898,94.859375 353.656007,95.8085938 353.656007,97.2851562 C353.656007,98.8144531 354.921632,99.78125 356.82007,99.78125 Z M355.50171,103.085938 C351.898195,103.085938 349.279054,100.818359 349.279054,97.4609375 C349.279054,94.15625 351.827882,92.1699219 356.363039,91.8886719 L361.284914,91.6074219 L361.284914,90.2714844 C361.284914,88.3203125 359.966554,87.1953125 357.804445,87.1953125 C355.730226,87.1953125 354.411867,88.1972656 354.130617,89.7441406 L350.07007,89.7441406 C350.263429,86.2636719 353.234132,83.7675781 357.980226,83.7675781 C362.603273,83.7675781 365.609132,86.2109375 365.609132,89.9550781 L365.609132,102.787109 L361.390382,102.787109 L361.390382,99.8164062 L361.302492,99.8164062 C360.230226,101.837891 357.892335,103.085938 355.50171,103.085938 Z M369.696193,79.7949219 L374.073146,79.7949219 L374.073146,84.1542969 L377.588771,84.1542969 L377.588771,87.5292969 L374.073146,87.5292969 L374.073146,97.2148438 C374.073146,98.7441406 374.776271,99.4472656 376.323146,99.4472656 C376.727443,99.4472656 377.289943,99.4121094 377.571193,99.359375 L377.571193,102.699219 C377.096584,102.804688 376.235256,102.875 375.303615,102.875 C371.278224,102.875 369.696193,101.451172 369.696193,97.8300781 L369.696193,87.5292969 L367.024318,87.5292969 L367.024318,84.1542969 L369.696193,84.1542969 L369.696193,79.7949219 Z M380.023488,102.787109 L380.023488,84.1542969 L384.400441,84.1542969 L384.400441,102.787109 L380.023488,102.787109 Z M382.203176,81.7109375 C380.84966,81.7109375 379.777395,80.65625 379.777395,79.3378906 C379.777395,78.0019531 380.84966,76.9472656 382.203176,76.9472656 C383.57427,76.9472656 384.646535,78.0019531 384.646535,79.3378906 C384.646535,80.65625 383.57427,81.7109375 382.203176,81.7109375 Z M395.676955,103.15625 C390.210158,103.15625 386.659377,99.5175781 386.659377,93.4707031 C386.659377,87.4589844 390.245315,83.7675781 395.676955,83.7675781 C401.108596,83.7675781 404.694533,87.4414062 404.694533,93.4707031 C404.694533,99.5175781 401.143752,103.15625 395.676955,103.15625 Z M395.676955,99.6933594 C398.454299,99.6933594 400.247268,97.4433594 400.247268,93.4707031 C400.247268,89.515625 398.454299,87.2480469 395.676955,87.2480469 C392.91719,87.2480469 391.106643,89.515625 391.106643,93.4707031 C391.106643,97.4433594 392.899612,99.6933594 395.676955,99.6933594 Z M406.865579,102.787109 L406.865579,84.1542969 L411.066751,84.1542969 L411.066751,87.3535156 L411.154641,87.3535156 C412.156594,85.1386719 414.142922,83.8027344 417.008157,83.8027344 C421.121438,83.8027344 423.459329,86.4394531 423.459329,90.7460938 L423.459329,102.787109 L419.082376,102.787109 L419.082376,91.625 C419.082376,88.9882812 417.851907,87.5117188 415.355813,87.5117188 C412.842141,87.5117188 411.242532,89.3222656 411.242532,91.9941406 L411.242532,102.787109 L406.865579,102.787109 Z" id="Code-Generation" fill="#666666"></path>
                    <path id="Line" d="M150.5,69.25 L121.5,54.75 L121.5,83.75 L150.5,69.25 Z M0,71.75 L124,71.75 L126.5,71.75 L126.5,66.75 L124,66.75 L0,66.75 L-2.5,66.75 L-2.5,71.75 L0,71.75 Z" fill="#CCCCCC" fill-rule="nonzero"></path>
                    <path d="M61.3339844,48.7871094 L59.171875,42.2304688 L49.8378906,42.2304688 L47.6757812,48.7871094 L43,48.7871094 L52,23.421875 L57.1152344,23.421875 L66.1152344,48.7871094 L61.3339844,48.7871094 Z M54.4433594,27.9042969 L50.8925781,38.7324219 L58.0996094,38.7324219 L54.5664062,27.9042969 L54.4433594,27.9042969 Z M66.4533534,41.6503906 L70.8478846,41.6503906 C71.1291346,43.9882812 73.4670253,45.5175781 76.5607753,45.5175781 C79.619369,45.5175781 81.7463221,44.0058594 81.7463221,41.8964844 C81.7463221,40.0683594 80.4455409,39.0136719 77.2463221,38.2578125 L73.9592128,37.484375 C69.2834315,36.4121094 67.0685878,34.1621094 67.0685878,30.5410156 C67.0685878,26.0410156 70.9885096,23 76.5080409,23 C82.0978846,23 85.7892909,26.0234375 85.8947596,30.4882812 L81.5705409,30.4882812 C81.3596034,28.1152344 79.3732753,26.6914062 76.4728846,26.6914062 C73.6076503,26.6914062 71.6740565,28.0976562 71.6740565,30.2070312 C71.6740565,31.8945312 72.9572596,32.8789062 76.0685878,33.6171875 L78.9865565,34.2851562 C84.1369471,35.4628906 86.3166346,37.5898438 86.3166346,41.3691406 C86.3166346,46.1855469 82.4494471,49.2089844 76.3146815,49.2089844 C70.478744,49.2089844 66.6467128,46.3261719 66.4533534,41.6503906 Z M99.4516286,48.7871094 L94.9340505,48.7871094 L94.9340505,27.2539062 L87.3403005,27.2539062 L87.3403005,23.421875 L107.027801,23.421875 L107.027801,27.2539062 L99.4516286,27.2539062 L99.4516286,48.7871094 Z" id="AST" fill="#666666"></path>
                </g>
                <g id="Execution" transform="translate(1205.000000, 25.000000)">
                    <rect id="Rectangle-2" fill="#DDDDDD" fill-rule="nonzero" x="175" y="0" width="330" height="137.5" rx="36"></rect>
                    <path d="M282.417969,53.0078125 L282.417969,56.8398438 L266,56.8398438 L266,31.4746094 L282.417969,31.4746094 L282.417969,35.3066406 L270.535156,35.3066406 L270.535156,42.1621094 L281.767578,42.1621094 L281.767578,45.765625 L270.535156,45.765625 L270.535156,53.0078125 L282.417969,53.0078125 Z M292.551905,50.1601562 L292.464014,50.1601562 L288.596826,56.8398438 L283.938623,56.8398438 L289.950342,47.5410156 L283.991358,38.2070312 L288.913233,38.2070312 L292.674951,44.7460938 L292.762842,44.7460938 L296.471826,38.2070312 L301.270655,38.2070312 L295.276514,47.4179688 L301.200342,56.8398438 L296.419092,56.8398438 L292.551905,50.1601562 Z M310.437794,41.2128906 C307.976856,41.2128906 306.201465,43.09375 306.025684,45.6953125 L314.726856,45.6953125 C314.638965,43.0585938 312.951465,41.2128906 310.437794,41.2128906 Z M314.744434,51.2675781 L318.840137,51.2675781 C318.277637,54.7832031 315.008106,57.2089844 310.595997,57.2089844 C305.006153,57.2089844 301.631153,53.5351562 301.631153,47.59375 C301.631153,41.7050781 305.041309,37.8203125 310.420215,37.8203125 C315.711231,37.8203125 319.015919,41.4941406 319.015919,47.1542969 L319.015919,48.578125 L305.990528,48.578125 L305.990528,48.8417969 C305.990528,51.8300781 307.818653,53.8339844 310.683887,53.8339844 C312.72295,53.8339844 314.269825,52.8144531 314.744434,51.2675781 Z M337.604933,44.8515625 L333.474073,44.8515625 C333.122511,42.8652344 331.733839,41.3710938 329.395948,41.3710938 C326.636183,41.3710938 324.860792,43.6914062 324.860792,47.5234375 C324.860792,51.4257812 326.653761,53.6757812 329.431104,53.6757812 C331.645948,53.6757812 333.087354,52.4101562 333.491651,50.3007812 L337.622511,50.3007812 C337.270948,54.4667969 334.054151,57.2089844 329.37837,57.2089844 C323.929151,57.2089844 320.413526,53.5703125 320.413526,47.5234375 C320.413526,41.5644531 323.929151,37.8203125 329.343214,37.8203125 C334.265089,37.8203125 337.306104,40.9316406 337.604933,44.8515625 Z M356.106056,38.2070312 L356.106056,56.8398438 L351.887306,56.8398438 L351.887306,53.6054688 L351.799415,53.6054688 C350.81504,55.8730469 348.934181,57.1738281 346.104103,57.1738281 C342.061134,57.1738281 339.494728,54.5546875 339.494728,50.2480469 L339.494728,38.2070312 L343.871681,38.2070312 L343.871681,49.3691406 C343.871681,52.0410156 345.172462,53.4824219 347.6334,53.4824219 C350.16465,53.4824219 351.729103,51.6894531 351.729103,48.9824219 L351.729103,38.2070312 L356.106056,38.2070312 Z M360.245851,33.8476562 L364.622804,33.8476562 L364.622804,38.2070312 L368.138429,38.2070312 L368.138429,41.5820312 L364.622804,41.5820312 L364.622804,51.2675781 C364.622804,52.796875 365.325929,53.5 366.872804,53.5 C367.277101,53.5 367.839601,53.4648438 368.120851,53.4121094 L368.120851,56.7519531 C367.646242,56.8574219 366.784914,56.9277344 365.853273,56.9277344 C361.827882,56.9277344 360.245851,55.5039062 360.245851,51.8828125 L360.245851,41.5820312 L357.573976,41.5820312 L357.573976,38.2070312 L360.245851,38.2070312 L360.245851,33.8476562 Z M370.573146,56.8398438 L370.573146,38.2070312 L374.9501,38.2070312 L374.9501,56.8398438 L370.573146,56.8398438 Z M372.752834,35.7636719 C371.399318,35.7636719 370.327053,34.7089844 370.327053,33.390625 C370.327053,32.0546875 371.399318,31 372.752834,31 C374.123928,31 375.196193,32.0546875 375.196193,33.390625 C375.196193,34.7089844 374.123928,35.7636719 372.752834,35.7636719 Z M386.226614,57.2089844 C380.759817,57.2089844 377.209035,53.5703125 377.209035,47.5234375 C377.209035,41.5117188 380.794973,37.8203125 386.226614,37.8203125 C391.658254,37.8203125 395.244192,41.4941406 395.244192,47.5234375 C395.244192,53.5703125 391.69341,57.2089844 386.226614,57.2089844 Z M386.226614,53.7460938 C389.003957,53.7460938 390.796926,51.4960938 390.796926,47.5234375 C390.796926,43.5683594 389.003957,41.3007812 386.226614,41.3007812 C383.466848,41.3007812 381.656301,43.5683594 381.656301,47.5234375 C381.656301,51.4960938 383.44927,53.7460938 386.226614,53.7460938 Z M397.415237,56.8398438 L397.415237,38.2070312 L401.616409,38.2070312 L401.616409,41.40625 L401.704299,41.40625 C402.706253,39.1914062 404.692581,37.8554688 407.557815,37.8554688 C411.671096,37.8554688 414.008987,40.4921875 414.008987,44.7988281 L414.008987,56.8398438 L409.632034,56.8398438 L409.632034,45.6777344 C409.632034,43.0410156 408.401565,41.5644531 405.905471,41.5644531 C403.391799,41.5644531 401.79219,43.375 401.79219,46.046875 L401.79219,56.8398438 L397.415237,56.8398438 Z M305.546607,96.0078125 L305.546607,99.8398438 L289.128638,99.8398438 L289.128638,74.4746094 L305.546607,74.4746094 L305.546607,78.3066406 L293.663794,78.3066406 L293.663794,85.1621094 L304.896216,85.1621094 L304.896216,88.765625 L293.663794,88.765625 L293.663794,96.0078125 L305.546607,96.0078125 Z M308.403199,99.8398438 L308.403199,81.2070312 L312.604371,81.2070312 L312.604371,84.40625 L312.692262,84.40625 C313.694215,82.1914062 315.680543,80.8554688 318.545777,80.8554688 C322.659058,80.8554688 324.996949,83.4921875 324.996949,87.7988281 L324.996949,99.8398438 L320.619996,99.8398438 L320.619996,88.6777344 C320.619996,86.0410156 319.389527,84.5644531 316.893433,84.5644531 C314.379762,84.5644531 312.780152,86.375 312.780152,89.046875 L312.780152,99.8398438 L308.403199,99.8398438 Z M336.080104,96.3769531 C338.875026,96.3769531 340.685572,94.109375 340.685572,90.4707031 C340.685572,86.8496094 338.875026,84.4941406 336.080104,84.4941406 C333.320338,84.4941406 331.562526,86.8144531 331.562526,90.4707031 C331.562526,94.1621094 333.320338,96.3769531 336.080104,96.3769531 Z M336.062526,106.871094 C331.457057,106.871094 328.152369,104.515625 327.712916,101.246094 L332.054713,101.246094 C332.529322,102.669922 334.128932,103.636719 336.203151,103.636719 C339.050807,103.636719 340.685572,102.037109 340.685572,99.6640625 L340.685572,96.5175781 L340.580104,96.5175781 C339.613307,98.5214844 337.416041,99.8574219 334.744166,99.8574219 C330.138697,99.8574219 327.080104,96.2539062 327.080104,90.453125 C327.080104,84.5644531 330.068385,80.890625 334.832057,80.890625 C337.486354,80.890625 339.630885,82.2617188 340.703151,84.40625 L340.773463,84.40625 L340.773463,81.2070312 L345.062526,81.2070312 L345.062526,99.5410156 C345.062526,103.988281 341.494166,106.871094 336.062526,106.871094 Z M348.094899,99.8398438 L348.094899,81.2070312 L352.471852,81.2070312 L352.471852,99.8398438 L348.094899,99.8398438 Z M350.274586,78.7636719 C348.921071,78.7636719 347.848805,77.7089844 347.848805,76.390625 C347.848805,75.0546875 348.921071,74 350.274586,74 C351.64568,74 352.717946,75.0546875 352.717946,76.390625 C352.717946,77.7089844 351.64568,78.7636719 350.274586,78.7636719 Z M355.504225,99.8398438 L355.504225,81.2070312 L359.705397,81.2070312 L359.705397,84.40625 L359.793288,84.40625 C360.795241,82.1914062 362.781569,80.8554688 365.646804,80.8554688 C369.760085,80.8554688 372.097975,83.4921875 372.097975,87.7988281 L372.097975,99.8398438 L367.721022,99.8398438 L367.721022,88.6777344 C367.721022,86.0410156 366.490554,84.5644531 363.99446,84.5644531 C361.480788,84.5644531 359.881179,86.375 359.881179,89.046875 L359.881179,99.8398438 L355.504225,99.8398438 Z M382.987771,84.2128906 C380.526833,84.2128906 378.751443,86.09375 378.575661,88.6953125 L387.276833,88.6953125 C387.188943,86.0585938 385.501443,84.2128906 382.987771,84.2128906 Z M387.294411,94.2675781 L391.390114,94.2675781 C390.827614,97.7832031 387.558083,100.208984 383.145974,100.208984 C377.55613,100.208984 374.18113,96.5351562 374.18113,90.59375 C374.18113,84.7050781 377.591286,80.8203125 382.970193,80.8203125 C388.261208,80.8203125 391.565896,84.4941406 391.565896,90.1542969 L391.565896,91.578125 L378.540505,91.578125 L378.540505,91.8417969 C378.540505,94.8300781 380.36863,96.8339844 383.233864,96.8339844 C385.272927,96.8339844 386.819802,95.8144531 387.294411,94.2675781 Z" id="Execution-Engine" fill="#666666"></path>
                    <path id="Line" d="M150.5,69.25 L121.5,54.75 L121.5,83.75 L150.5,69.25 Z M0,71.75 L124,71.75 L126.5,71.75 L126.5,66.75 L124,66.75 L0,66.75 L-2.5,66.75 L-2.5,71.75 L0,71.75 Z" fill="#CCCCCC" fill-rule="nonzero"></path>
                    <path d="M61.3339844,48.7871094 L59.171875,42.2304688 L49.8378906,42.2304688 L47.6757812,48.7871094 L43,48.7871094 L52,23.421875 L57.1152344,23.421875 L66.1152344,48.7871094 L61.3339844,48.7871094 Z M54.4433594,27.9042969 L50.8925781,38.7324219 L58.0996094,38.7324219 L54.5664062,27.9042969 L54.4433594,27.9042969 Z M66.4533534,41.6503906 L70.8478846,41.6503906 C71.1291346,43.9882812 73.4670253,45.5175781 76.5607753,45.5175781 C79.619369,45.5175781 81.7463221,44.0058594 81.7463221,41.8964844 C81.7463221,40.0683594 80.4455409,39.0136719 77.2463221,38.2578125 L73.9592128,37.484375 C69.2834315,36.4121094 67.0685878,34.1621094 67.0685878,30.5410156 C67.0685878,26.0410156 70.9885096,23 76.5080409,23 C82.0978846,23 85.7892909,26.0234375 85.8947596,30.4882812 L81.5705409,30.4882812 C81.3596034,28.1152344 79.3732753,26.6914062 76.4728846,26.6914062 C73.6076503,26.6914062 71.6740565,28.0976562 71.6740565,30.2070312 C71.6740565,31.8945312 72.9572596,32.8789062 76.0685878,33.6171875 L78.9865565,34.2851562 C84.1369471,35.4628906 86.3166346,37.5898438 86.3166346,41.3691406 C86.3166346,46.1855469 82.4494471,49.2089844 76.3146815,49.2089844 C70.478744,49.2089844 66.6467128,46.3261719 66.4533534,41.6503906 Z M99.4516286,48.7871094 L94.9340505,48.7871094 L94.9340505,27.2539062 L87.3403005,27.2539062 L87.3403005,23.421875 L107.027801,23.421875 L107.027801,27.2539062 L99.4516286,27.2539062 L99.4516286,48.7871094 Z" id="AST" fill="#666666"></path>
                </g>
            </g>
        </g>
    </g>
</svg>