<?xml version="1.0" encoding="UTF-8"?>
<svg width="150px" height="150px" viewBox="0 0 150 150" version="1.1" xmlns="http://www.w3.org/2000/svg" xmlns:xlink="http://www.w3.org/1999/xlink">
    <!-- Generator: Sketch 51.1 (57501) - http://www.bohemiancoding.com/sketch -->
    <title>Group</title>
    <desc>Created with Sketch.</desc>
    <defs>
        <linearGradient x1="50%" y1="0%" x2="50%" y2="100%" id="linearGradient-1">
            <stop stop-color="#FF0079" offset="0%"></stop>
            <stop stop-color="#FF0044" offset="100%"></stop>
        </linearGradient>
    </defs>
    <g id="Page-1" stroke="none" stroke-width="1" fill="none" fill-rule="evenodd">
        <g id="Group">
            <rect id="Rectangle-2" fill="url(#linearGradient-1)" fill-rule="nonzero" x="0" y="0" width="150" height="150" rx="36"></rect>
            <path d="M40,49 L72.688,49 L72.688,58.216 L49.72,58.216 L49.72,70.744 L70.384,70.744 L70.384,79.96 L49.72,79.96 L49.72,100.552 L40,100.552 L40,49 Z M108.98909,92.056 C107.357082,94.9360144 105.161104,97.2639911 102.40109,99.04 C99.6410762,100.816009 96.2691099,101.704 92.28509,101.704 C89.5970766,101.704 87.1131014,101.236005 84.83309,100.3 C82.5530786,99.3639953 80.5730984,98.0560084 78.89309,96.376 C77.2130816,94.6959916 75.9050947,92.7160114 74.96909,90.436 C74.0330853,88.1559886 73.56509,85.6480137 73.56509,82.912 C73.56509,80.3679873 74.0210854,77.9560114 74.93309,75.676 C75.8450946,73.3959886 77.1170818,71.4040085 78.74909,69.7 C80.3810982,67.9959915 82.3130788,66.640005 84.54509,65.632 C86.7771012,64.623995 89.2370766,64.12 91.92509,64.12 C94.7571042,64.12 97.277079,64.5879953 99.48509,65.524 C101.693101,66.4600047 103.541083,67.7559917 105.02909,69.412 C106.517097,71.0680083 107.645086,73.0239887 108.41309,75.28 C109.181094,77.5360113 109.56509,79.9839868 109.56509,82.624 L109.56509,83.488 C109.51709,83.7760014 109.49309,84.0399988 109.49309,84.28 C109.44509,84.5200012 109.42109,84.7839986 109.42109,85.072 L82.85309,85.072 C83.045091,86.5120072 83.441087,87.7479948 84.04109,88.78 C84.641093,89.8120052 85.3850856,90.6759965 86.27309,91.372 C87.1610944,92.0680035 88.1330847,92.5719984 89.18909,92.884 C90.2450953,93.1960016 91.3250845,93.352 92.42909,93.352 C94.5891008,93.352 96.3770829,92.8600049 97.79309,91.876 C99.2090971,90.8919951 100.325086,89.6560074 101.14109,88.168 L108.98909,92.056 Z M100.42109,78.376 C100.37309,77.7519969 100.169092,77.0560038 99.80909,76.288 C99.4490882,75.5199962 98.9210935,74.8000034 98.22509,74.128 C97.5290865,73.4559966 96.6650952,72.9040022 95.63309,72.472 C94.6010848,72.0399978 93.3650972,71.824 91.92509,71.824 C89.9090799,71.824 88.1330977,72.3999942 86.59709,73.552 C85.0610823,74.7040058 83.9810931,76.3119897 83.35709,78.376 L100.42109,78.376 Z" id="Fe" fill="#FFFFFF"></path>
        </g>
    </g>
</svg>